<svg id="Layer_1" data-name="Layer 1" xmlns="http://www.w3.org/2000/svg" viewBox="0 0 289.47 316.11"><path d="M289.42,168.61c-.13-20.74-11-34.2-31.2-38.35,0-1.33.06-2.75,0-4.16-.55-11.18.2-22.61-1.92-33.48-9-46-36.49-75.65-81.43-88.89C168.32,1.8,161.39,1.21,154.63,0h-16a8.94,8.94,0,0,1-1.73.49,100.5,100.5,0,0,0-31.92,7.68C68.24,24,45.58,51.46,37.26,90.64c-2.53,11.89-1.86,24-2,36,0,1.29,0,2.58,0,4.09-1.45,0-2.36,0-3.28,0C13.38,129.9.61,145.93.31,161c-.36,18-.45,36,0,54,.35,15.4,13.1,28.09,28.46,28.77,9.65.43,19.33.18,29,.18,6.22,0,8.75-2.6,8.75-8.86V142.24a31,31,0,0,0-.17-4.31c-.68-4.8-3.5-7.22-8.31-7.24H50.55c.41-11,0-21.59,1.31-31.93,6-45.62,42.61-79.95,88.73-82.71,36.52-2.19,65.27,12.75,86.1,42.71,14.94,21.51,17.06,46,15.64,71.15,0,.17-.21.33-.52.78-2.15,0-4.5,0-6.85,0-3.84,0-6.21,1.63-7.33,5.31a18.88,18.88,0,0,0-.73,5.46q-.08,46.89,0,93.8c0,5.93,2.72,8.67,8.63,8.72,2.27,0,4.54,0,7.15,0-9.06,15.2-35.86,28.52-50.21,25.36-5.14-21.58-24.75-32.44-42.08-30.23-20.09,2.55-34.51,18.73-34.56,38.27,0,19.32,14.88,35.73,34.94,38.4,18.85,2.51,36-10,41.86-30.39a1.86,1.86,0,0,1,.56-.22c.61-.06,1.23-.09,1.85-.11a78.33,78.33,0,0,0,36.39-10.32c12.38-7.06,21.73-17.12,29.08-29.17a5.12,5.12,0,0,1,4.1-2.63c16.38-2.36,24.83-12.17,24.85-28.67C289.46,199.06,289.51,183.83,289.42,168.61ZM50.81,146.27V228c-7.83,0-15.66.66-23.31-.2-7.09-.8-11.73-7.31-11.75-14.5-.05-16.65-.08-33.3,0-49.94.06-10.52,6.75-17,17.18-17ZM155,300.37c-12.59,0-23.51-10.82-23.52-23.38a23,23,0,0,1,22.83-22.75c13.12-.09,23.13,10.08,23.23,23.58A22.65,22.65,0,0,1,155,300.37Zm118.76-85.9c0,8.69-3.95,13.21-12.66,13.75-6,.37-12.1.07-18.48.07V146.46c6.14,0,12.24-.62,18.12.26,2.91.44,5.91,3.23,8,5.7,3.62,4.37,5.08,9.76,5.07,15.5Q273.76,191.2,273.78,214.47Z"/></svg>